<svg xmlns="http://www.w3.org/2000/svg" width="1400" height="900" viewBox="0 0 1400 900"><rect width="1400" height="900" fill="#17191d"/><g fill="#edf0f3" font-family="Microsoft YaHei,sans-serif"><text x="88" y="110" font-size="22" letter-spacing="5">PERSONAL AI SYSTEM</text><text x="88" y="220" font-size="62">对话 · 知识 · 协作</text><text x="88" y="275" font-size="22" fill="#a0a7af">流程结构 / 个人需求、规则设计与验收</text></g><g fill="#252a31" stroke="#515b66"><rect x="88" y="360" width="350" height="220" rx="20"/><rect x="525" y="360" width="350" height="220" rx="20"/><rect x="962" y="360" width="350" height="220" rx="20"/></g><g fill="#edf0f3" font-family="Microsoft YaHei,sans-serif" font-size="30"><text x="122" y="425">01 / 对话回顾</text><text x="559" y="425">02 / 知识整理</text><text x="996" y="425">03 / 后续协作</text></g><g fill="#aab5c1" font-family="Microsoft YaHei,sans-serif" font-size="23"><text x="122" y="494">起因、操作与产出</text><text x="122" y="535">决定与未完成事项</text><text x="559" y="494">来源、作用域与状态</text><text x="559" y="535">规则、画像与复核</text><text x="996" y="494">检索、同步与验收</text><text x="996" y="535">追溯与版本保留</text><text x="88" y="745">PROMPT / SKILLS / KNOWLEDGE LIFECYCLE</text></g><path d="M453 470h55m-15-12 15 12-15 12M890 470h55m-15-12 15 12-15 12" fill="none" stroke="#97a9bf" stroke-width="3"/></svg>
